#!OML:ASF F:\VICON\USERDATA\INSTALL\rory3\rory3.ASF
:FULLY-SPECIFIED
:DEGREES
169
root -1.18895 17.7325 3.52093 -163.987 4.82026 -171.118
lowerback -7.73503 2.67548 1.77624
upperback -9.37343 4.84992 1.91375
thorax -5.50913 2.92364 1.08686
lowerneck -10.0409 1.38279 -0.735057
upperneck 33.4216 -2.83823 4.77917
head 12.8832 -2.00524 1.30616
rclavicle 4.96962e-016 1.23246e-014
rhumerus 3.24645 65.5399 -18.9865
rradius 80.084
rwrist 15.8944
rhand -24.8729 46.0602
rfingers 7.12502
rthumb 1.63432 16.0867
lclavicle 4.96962e-016 1.23246e-014
lhumerus 34.7907 -57.013 -14.4738
lradius 84.3426
lwrist -40.7878
lhand -36.5689 1.72659
lfingers 7.12502
lthumb -9.65875 31.4851
rfemur -23.0252 -28.6518 25.6984
rtibia 57.8958
rfoot -9.80047 -36.9558
rtoes 58.3438
lfemur -48.4002 -4.58057 -11.3954
ltibia 43.8755
lfoot -35.8472 11.1504
ltoes 51.7336
170
root -1.24757 17.7794 3.3584 -164.212 5.53782 -171.245
lowerback -7.571 2.79644 2.00529
upperback -9.42542 4.99111 1.72235
thorax -5.62291 2.96555 0.752264
lowerneck -9.66455 1.59772 -0.446774
upperneck 33.3012 -2.5774 4.71261
head 12.7388 -1.88081 1.26324
rclavicle -5.5113e-014 -1.98785e-014
rhumerus 1.02612 65.4714 -19.3441
rradius 77.8705
rwrist 16.7085
rhand -25.7205 50.4325
rfingers 7.12502
rthumb 0.815714 20.4543
lclavicle -5.5113e-014 -1.98785e-014
lhumerus 31.2221 -57.3824 -13.5909
lradius 82.3143
lwrist -41.0335
lhand -35.9837 2.31512
lfingers 7.12502
lthumb -9.09409 32.0991
rfemur -24.2189 -31.7131 24.3714
rtibia 61.3672
rfoot -9.30869 -38.0419
rtoes 58.944
lfemur -47.2781 -4.58855 -11.8046
ltibia 43.7312
lfoot -36.6254 9.57348
ltoes 52.1597
171
root -1.29672 17.8306 3.20429 -164.352 6.44992 -171.546
lowerback -7.21242 2.90483 1.76538
upperback -9.48712 5.13333 1.59234
thorax -5.89587 3.03433 0.723643
lowerneck -9.96392 1.70547 -0.424755
upperneck 33.5115 -2.45862 4.71211
head 12.888 -1.82809 1.27392
rclavicle 1.7344e-014 2.3059e-014
rhumerus -0.346704 65.5506 -19.0905
rradius 75.5876
rwrist 16.8858
rhand -26.3714 49.1194
rfingers 7.12502
rthumb 0.187012 19.1397
lclavicle 1.7344e-014 2.3059e-014
lhumerus 27.6218 -57.5696 -12.3595
lradius 79.9444
lwrist -40.8125
lhand -36.0133 2.53605
lfingers 7.12502
lthumb -9.12267 32.3187
rfemur -25.7602 -34.3252 22.9921
rtibia 64.9444
rfoot -2.16399 -39.2238
rtoes 57.7595
lfemur -46.2378 -4.43145 -12.3936
ltibia 43.4841
lfoot -37.0558 9.20788
ltoes 52.1752
172
root -1.33272 17.8834 3.07602 -164.494 7.62353 -171.887
lowerback -6.57867 3.03647 1.40884
upperback -10.1138 5.44245 1.41626
thorax -6.95256 3.23089 0.654378
lowerneck -8.08168 1.88362 -0.677241
upperneck 33.3054 -2.46923 5.07898
head 12.4053 -1.94377 1.44455
rclavicle -1.21259e-014 -7.95139e-016
rhumerus -3.54241 66.6256 -20.5436
rradius 73.5708
rwrist 16.9856
rhand -29.043 51.1701
rfingers 7.12502
rthumb -2.39322 21.2038
lclavicle -1.21259e-014 -7.95139e-016
lhumerus 24.3252 -58.6072 -11.4078
lradius 77.7201
lwrist -40.8495
lhand -36.5611 1.84407
lfingers 7.12502
lthumb -9.65117 31.603
rfemur -27.6967 -36.1774 21.8657
rtibia 68.6293
rfoot 4.47881 -39.5568
rtoes 55.9536
lfemur -45.2789 -4.4369 -12.8114
ltibia 43.1665
lfoot -37.7307 9.01504
ltoes 52.1297
173
root -1.38905 17.9289 2.8835 -164.715 8.14369 -172.509
lowerback -7.01941 3.02844 1.19107
upperback -9.90141 5.35585 1.1657
thorax -6.46008 3.17694 0.562544
lowerneck -8.35668 1.95382 -0.623422
upperneck 33.4098 -2.34397 4.96419
head 12.5002 -1.88939 1.40697
rclavicle -4.06515e-014 -2.06736e-014
rhumerus -5.1855 66.3032 -20.6753
rradius 71.4283
rwrist 16.8859
rhand -30.6667 45.5962
rfingers 7.12502
rthumb -3.96124 15.6533
lclavicle -4.06515e-014 -2.06736e-014
lhumerus 20.6093 -58.3563 -9.92858
lradius 75.3743
lwrist -41.0774
lhand -36.7248 1.56503
lfingers 7.12502
lthumb -9.80914 31.3166
rfemur -28.7285 -39.391 19.727
rtibia 72.228
rfoot 7.53402 -40.4144
rtoes 55.4687
lfemur -44.0907 -4.05922 -14.0436
ltibia 42.8167
lfoot -37.4663 9.1445
ltoes 52.0596
174
root -1.44748 17.969 2.69315 -165.213 9.33178 -172.949
lowerback -7.23187 3.28306 1.11371
upperback -9.63265 5.60517 0.934935
thorax -6.03072 3.27099 0.405759
lowerneck -8.30377 2.08138 -0.388528
upperneck 33.4038 -2.14941 4.76472
head 12.4761 -1.80375 1.31265
rclavicle -1.89839e-014 -2.3059e-014
rhumerus -7.15521 65.7055 -21.2326
rradius 69.1745
rwrist 16.5794
rhand -30.838 47.2087
rfingers 7.12502
rthumb -4.12666 17.2689
lclavicle -1.89839e-014 -2.3059e-014
lhumerus 17.5148 -58.1841 -8.77284
lradius 72.7146
lwrist -41.2658
lhand -36.3254 1.76339
lfingers 7.12502
lthumb -9.42375 31.5327
rfemur -29.5931 -41.6887 17.4642
rtibia 75.9016
rfoot 5.63418 -43.0388
rtoes 56.5431
lfemur -42.4191 -4.03665 -14.9101
ltibia 42.4316
lfoot -38.3827 7.79299
ltoes 52.2349
175
root -1.48473 18.011 2.55579 -165.242 9.8028 -173.289
lowerback -7.09386 3.25243 0.869392
upperback -9.69742 5.56775 0.822416
thorax -6.18714 3.26081 0.407384
lowerneck -8.51194 2.22263 -0.492505
upperneck 33.5646 -1.98485 4.876
head 12.5825 -1.73467 1.39428
rclavicle 7.23576e-014 3.53837e-014
rhumerus -9.18048 64.9319 -21.8723
rradius 66.9811
rwrist 16.2211
rhand -31.2921 47.6509
rfingers 7.12502
rthumb -4.56524 17.7201
lclavicle 7.23576e-014 3.53837e-014
lhumerus 14.7697 -57.9073 -7.71264
lradius 69.9483
lwrist -41.425
lhand -36.1481 2.08936
lfingers 7.12502
lthumb -9.25267 31.8663
rfemur -31.4589 -44.1912 16.3971
rtibia 79.6136
rfoot 0.182662 -45.6378
rtoes 57.9814
lfemur -41.6539 -3.35147 -15.694
ltibia 42.0337
lfoot -38.0346 8.20206
ltoes 52.116
176
root -1.51625 18.0492 2.42435 -165.285 10.3738 -173.544
lowerback -6.83184 3.29447 0.586303
upperback -9.57179 5.58112 0.733937
thorax -6.21215 3.26113 0.458336
lowerneck -9.63826 2.29648 -0.717578
upperneck 33.9617 -1.86071 5.04487
head 12.9895 -1.64885 1.5238
rclavicle 8.44835e-015 -1.27222e-014
rhumerus -10.6269 63.7846 -22.1026
rradius 64.7431
rwrist 16.0186
rhand -29.6801 49.9597
rfingers 7.12502
rthumb -3.00856 20.0012
lclavicle 8.44835e-015 -1.27222e-014
lhumerus 11.3703 -56.7121 -6.03354
lradius 67.5123
lwrist -41.4426
lhand -36.5579 1.47113
lfingers 7.12502
lthumb -9.64809 31.2302
rfemur -33.4126 -46.4204 15.5506
rtibia 83.3048
rfoot -4.12384 -46.8863
rtoes 59.3095
lfemur -40.8811 -3.36567 -16.091
ltibia 41.6265
lfoot -38.4596 7.40735
ltoes 52.3297
177
root -1.54507 18.0844 2.28539 -165.289 10.9915 -173.656
lowerback -6.74415 3.42426 0.475835
upperback -9.74626 5.78024 0.602801
thorax -6.45017 3.37044 0.366527
lowerneck -9.27676 2.31294 -0.753163
upperneck 33.9857 -1.93907 5.15934
head 12.9265 -1.70681 1.55861
rclavicle 5.56597e-015 5.56597e-015
rhumerus -13.5542 62.7509 -23.5819
rradius 62.6441
rwrist 16.1021
rhand -31.7768 49.6561
rfingers 7.12502
rthumb -5.03319 19.7359
lclavicle 5.56597e-015 5.56597e-015
lhumerus 8.31247 -55.6158 -4.39813
lradius 65.1082
lwrist -42.2221
lhand -36.8791 1.16568
lfingers 7.12502
lthumb -9.95802 30.9101
rfemur -35.3522 -48.4595 14.9038
rtibia 86.8675
rfoot -6.70425 -47.5499
rtoes 60.934
lfemur -40.1571 -3.56436 -16.2793
ltibia 41.2466
lfoot -39.0128 6.96812
ltoes 52.4004
178
root -1.57791 18.1183 2.14229 -165.166 11.3833 -173.816
lowerback -6.71347 3.36278 0.347958
upperback -10.0759 5.77237 0.590197
thorax -6.83957 3.39975 0.397615
lowerneck -8.60645 2.40861 -0.848292
upperneck 33.9725 -1.86497 5.13463
head 12.7721 -1.74058 1.56698
rclavicle -2.14687e-014 -2.14687e-014
rhumerus -16.1222 61.4667 -24.6258
rradius 60.7244
rwrist 16.4333
rhand -31.8208 50.8125
rfingers 7.12502
rthumb -5.07569 20.8933
lclavicle -2.14687e-014 -2.14687e-014
lhumerus 4.9494 -54.4352 -2.30592
lradius 62.5524
lwrist -43.6042
lhand -36.6945 1.23608
lfingers 7.12502
lthumb -9.77994 30.989
rfemur -37.5059 -50.783 14.3579
rtibia 90.3504
rfoot -3.60205 -48.7431
rtoes 61.3761
lfemur -39.659 -3.37872 -16.7012
ltibia 40.9185
lfoot -39.0593 7.4826
ltoes 52.285
